  0
SECTION
  2
HEADER
  9
$ACADVER
  1
AC1009
  9
$DWGCODEPAGE
  3
ansi_1252
  9
$INSBASE
 10
0.0
 20
0.0
 30
0.0
  9
$EXTMIN
 10
-23.82446615890311
 20
-27.12862936707333
 30
0.0
  9
$EXTMAX
 10
24.28371616037494
 20
29.14541563516767
 30
0.0
  9
$LIMMIN
 10
0.0
 20
0.0
  9
$LIMMAX
 10
12.0
 20
9.0
  9
$ORTHOMODE
 70
     0
  9
$REGENMODE
 70
     1
  9
$FILLMODE
 70
     1
  9
$QTEXTMODE
 70
     0
  9
$MIRRTEXT
 70
     1
  9
$DRAGMODE
 70
     2
  9
$LTSCALE
 40
1.0
  9
$OSMODE
 70
    37
  9
$ATTMODE
 70
     1
  9
$TEXTSIZE
 40
0.2
  9
$TRACEWID
 40
0.05
  9
$TEXTSTYLE
  7
STANDARD
  9
$CLAYER
  8
DEFAULT
  9
$CELTYPE
  6
BYLAYER
  9
$CECOLOR
 62
   256
  9
$DIMSCALE
 40
1.0
  9
$DIMASZ
 40
0.18
  9
$DIMEXO
 40
0.0625
  9
$DIMDLI
 40
0.38
  9
$DIMRND
 40
0.0
  9
$DIMDLE
 40
0.0
  9
$DIMEXE
 40
0.18
  9
$DIMTP
 40
0.0
  9
$DIMTM
 40
0.0
  9
$DIMTXT
 40
0.18
  9
$DIMCEN
 40
0.09
  9
$DIMTSZ
 40
0.0
  9
$DIMTOL
 70
     0
  9
$DIMLIM
 70
     0
  9
$DIMTIH
 70
     1
  9
$DIMTOH
 70
     1
  9
$DIMSE1
 70
     0
  9
$DIMSE2
 70
     0
  9
$DIMTAD
 70
     0
  9
$DIMZIN
 70
     0
  9
$DIMBLK
  1

  9
$DIMASO
 70
     1
  9
$DIMSHO
 70
     1
  9
$DIMPOST
  1

  9
$DIMAPOST
  1

  9
$DIMALT
 70
     0
  9
$DIMALTD
 70
     2
  9
$DIMALTF
 40
25.4
  9
$DIMLFAC
 40
1.0
  9
$DIMTOFL
 70
     0
  9
$DIMTVP
 40
0.0
  9
$DIMTIX
 70
     0
  9
$DIMSOXD
 70
     0
  9
$DIMSAH
 70
     0
  9
$DIMBLK1
  1

  9
$DIMBLK2
  1

  9
$DIMSTYLE
  2
STANDARD_ACAD
  9
$DIMCLRD
 70
     0
  9
$DIMCLRE
 70
     0
  9
$DIMCLRT
 70
     0
  9
$DIMTFAC
 40
1.0
  9
$DIMGAP
 40
0.09
  9
$LUNITS
 70
     2
  9
$LUPREC
 70
     3
  9
$SKETCHINC
 40
0.1
  9
$FILLETRAD
 40
0.0
  9
$AUNITS
 70
     0
  9
$AUPREC
 70
     0
  9
$MENU
  1
.
  9
$ELEVATION
 40
0.0
  9
$PELEVATION
 40
0.0
  9
$THICKNESS
 40
0.0
  9
$LIMCHECK
 70
     0
  9
$CHAMFERA
 40
0.0
  9
$CHAMFERB
 40
0.0
  9
$SKPOLY
 70
     0
  9
$TDCREATE
 40
2460754.568835498
  9
$TDUPDATE
 40
2460754.568858785
  9
$TDINDWG
 40
0.0000000116
  9
$TDUSRTIMER
 40
0.0000000116
  9
$USRTIMER
 70
     1
  9
$ANGBASE
 50
0.0
  9
$ANGDIR
 70
     0
  9
$PDMODE
 70
     0
  9
$PDSIZE
 40
0.0
  9
$PLINEWID
 40
0.0
  9
$COORDS
 70
     1
  9
$SPLFRAME
 70
     0
  9
$SPLINETYPE
 70
     6
  9
$SPLINESEGS
 70
     8
  9
$ATTDIA
 70
     0
  9
$ATTREQ
 70
     1
  9
$HANDLING
 70
     1
  9
$HANDSEED
  5
AF
  9
$SURFTAB1
 70
     6
  9
$SURFTAB2
 70
     6
  9
$SURFTYPE
 70
     6
  9
$SURFU
 70
     6
  9
$SURFV
 70
     6
  9
$UCSNAME
  2

  9
$UCSORG
 10
0.0
 20
0.0
 30
0.0
  9
$UCSXDIR
 10
1.0
 20
0.0
 30
0.0
  9
$UCSYDIR
 10
0.0
 20
1.0
 30
0.0
  9
$PUCSNAME
  2

  9
$PUCSORG
 10
0.0
 20
0.0
 30
0.0
  9
$PUCSXDIR
 10
1.0
 20
0.0
 30
0.0
  9
$PUCSYDIR
 10
0.0
 20
1.0
 30
0.0
  9
$USERI1
 70
     0
  9
$USERI2
 70
     0
  9
$USERI3
 70
     0
  9
$USERI4
 70
     0
  9
$USERI5
 70
     0
  9
$USERR1
 40
0.0
  9
$USERR2
 40
0.0
  9
$USERR3
 40
0.0
  9
$USERR4
 40
0.0
  9
$USERR5
 40
0.0
  9
$WORLDVIEW
 70
     1
  9
$SHADEDGE
 70
     3
  9
$SHADEDIF
 70
    70
  9
$TILEMODE
 70
     1
  9
$MAXACTVP
 70
    64
  9
$PLIMCHECK
 70
     0
  9
$PEXTMIN
 10
1.000000000000000E+20
 20
1.000000000000000E+20
 30
1.000000000000000E+20
  9
$PEXTMAX
 10
-1.000000000000000E+20
 20
-1.000000000000000E+20
 30
-1.000000000000000E+20
  9
$PLIMMIN
 10
0.0
 20
0.0
  9
$PLIMMAX
 10
12.0
 20
9.0
  9
$UNITMODE
 70
     0
  9
$VISRETAIN
 70
     1
  9
$PLINEGEN
 70
     0
  9
$PSLTSCALE
 70
     1
  0
ENDSEC
  0
SECTION
  2
TABLES
  0
TABLE
  2
VPORT
 70
     1
  0
VPORT
  2
*ACTIVE
 70
     0
 10
0.0
 20
0.0
 11
1.0
 21
1.0
 12
10.42990654205607
 22
4.5
 13
0.0
 23
0.0
 14
0.5
 24
0.5
 15
0.5
 25
0.5
 16
0.0
 26
0.0
 36
1.0
 17
0.0
 27
0.0
 37
0.0
 40
9.0
 41
1.972972972850329
 42
50.0
 43
0.0
 44
0.0
 50
0.0
 51
0.0
 71
     0
 72
   100
 73
     1
 74
     3
 75
     0
 76
     0
 77
     0
 78
     0
  0
ENDTAB
  0
TABLE
  2
LTYPE
 70
     1
  0
LTYPE
  2
CONTINUOUS
 70
     0
  3
Solid line
 72
    65
 73
     0
 40
0.0
  0
ENDTAB
  0
TABLE
  2
LAYER
 70
     2
  0
LAYER
  2
0
 70
     0
 62
     7
  6
CONTINUOUS
  0
LAYER
  2
DEFAULT
 70
     0
 62
     7
  6
CONTINUOUS
  0
ENDTAB
  0
TABLE
  2
STYLE
 70
     1
  0
STYLE
  2
STANDARD
 70
     0
 40
0.0
 41
1.0
 50
0.0
 71
     0
 42
0.2
  3
txt
  4

  0
ENDTAB
  0
TABLE
  2
VIEW
 70
     0
  0
ENDTAB
  0
TABLE
  2
UCS
 70
     0
  0
ENDTAB
  0
TABLE
  2
APPID
 70
     2
  0
APPID
  2
ACAD
 70
     0
  0
APPID
  2
RHINO
 70
     0
  0
ENDTAB
  0
TABLE
  2
DIMSTYLE
 70
     1
  0
DIMSTYLE
  2
STANDARD_ACAD
 70
     0
  3

  4

  5

  6

  7

 40
1.0
 41
0.18
 42
0.0625
 43
0.38
 44
0.18
 45
0.0
 46
0.0
 47
0.0
 48
0.0
140
0.18
141
0.09
142
0.0
143
25.4
144
1.0
145
0.0
146
1.0
147
0.09
 71
     0
 72
     0
 73
     1
 74
     1
 75
     0
 76
     0
 77
     0
 78
     0
170
     0
171
     2
172
     0
173
     0
174
     0
175
     0
176
     0
177
     0
178
     0
  0
ENDTAB
  0
ENDSEC
  0
SECTION
  2
BLOCKS
  0
BLOCK
  8
0
  2
$MODEL_SPACE
 70
     0
 10
0.0
 20
0.0
 30
0.0
  3
$MODEL_SPACE
  1

  0
ENDBLK
  5
21
  8
0
  0
BLOCK
 67
     1
  8
0
  2
$PAPER_SPACE
 70
     0
 10
0.0
 20
0.0
 30
0.0
  3
$PAPER_SPACE
  1

  0
ENDBLK
  5
1D
 67
     1
  8
0
  0
ENDSEC
  0
SECTION
  2
ENTITIES
  0
POLYLINE
  5
60
  8
DEFAULT
 66
     1
 10
0.0
 20
0.0
 30
0.0
 70
     1
  0
VERTEX
  5
61
  8
DEFAULT
 10
-5.555468214654166
 20
27.37226311722526
 30
0.0
  0
VERTEX
  5
62
  8
DEFAULT
 10
-6.679439767864794
 20
26.58856777884051
 30
0.0
  0
VERTEX
  5
63
  8
DEFAULT
 10
-7.767729684465563
 20
25.78250735482555
 30
0.0
  0
VERTEX
  5
64
  8
DEFAULT
 10
-8.820337964456469
 20
24.95408184518041
 30
0.0
  0
VERTEX
  5
65
  8
DEFAULT
 10
-9.837264607837513
 20
24.10329124990508
 30
0.0
  0
VERTEX
  5
66
  8
DEFAULT
 10
-10.8185096146087
 20
23.23013556899955
 30
0.0
  0
VERTEX
  5
67
  8
DEFAULT
 10
-11.76407298477002
 20
22.33461480246384
 30
0.0
  0
VERTEX
  5
68
  8
DEFAULT
 10
-12.67395471832148
 20
21.41672895029793
 30
0.0
  0
VERTEX
  5
69
  8
DEFAULT
 10
-13.54815481526308
 20
20.47647801250183
 30
0.0
  0
VERTEX
  5
6A
  8
DEFAULT
 10
-14.38667327559482
 20
19.51386198907554
 30
0.0
  0
VERTEX
  5
6B
  8
DEFAULT
 10
-15.1895100993167
 20
18.52888088001906
 30
0.0
  0
VERTEX
  5
6C
  8
DEFAULT
 10
-15.95666528642871
 20
17.52153468533238
 30
0.0
  0
VERTEX
  5
6D
  8
DEFAULT
 10
-16.68813883693087
 20
16.49182340501552
 30
0.0
  0
VERTEX
  5
6E
  8
DEFAULT
 10
-17.38393075082316
 20
15.43974703906846
 30
0.0
  0
VERTEX
  5
6F
  8
DEFAULT
 10
-18.0440410281056
 20
14.36530558749121
 30
0.0
  0
VERTEX
  5
70
  8
DEFAULT
 10
-18.66846966877817
 20
13.26849905028377
 30
0.0
  0
VERTEX
  5
71
  8
DEFAULT
 10
-19.25721667284088
 20
12.14932742744614
 30
0.0
  0
VERTEX
  5
72
  8
DEFAULT
 10
-19.81028204029372
 20
11.00779071897832
 30
0.0
  0
VERTEX
  5
73
  8
DEFAULT
 10
-20.32766577113671
 20
9.8438889248803
 30
0.0
  0
VERTEX
  5
74
  8
DEFAULT
 10
-20.80936786536984
 20
8.657622045152095
 30
0.0
  0
VERTEX
  5
75
  8
DEFAULT
 10
-21.25538832299311
 20
7.448990079793697
 30
0.0
  0
VERTEX
  5
76
  8
DEFAULT
 10
-21.66572714400651
 20
6.217993028805108
 30
0.0
  0
VERTEX
  5
77
  8
DEFAULT
 10
-22.04038432841005
 20
4.964630892186328
 30
0.0
  0
VERTEX
  5
78
  8
DEFAULT
 10
-22.37935987620373
 20
3.688903669937356
 30
0.0
  0
VERTEX
  5
79
  8
DEFAULT
 10
-22.68265378738755
 20
2.390811362058193
 30
0.0
  0
VERTEX
  5
7A
  8
DEFAULT
 10
-22.95026606196151
 20
1.070353968548837
 30
0.0
  0
VERTEX
  5
7B
  8
DEFAULT
 10
-23.18219669992561
 20
-0.272468510590709
 30
0.0
  0
VERTEX
  5
7C
  8
DEFAULT
 10
-23.37844570127985
 20
-1.637656075360447
 30
0.0
  0
VERTEX
  5
7D
  8
DEFAULT
 10
-23.53901306602422
 20
-3.025208725760376
 30
0.0
  0
VERTEX
  5
7E
  8
DEFAULT
 10
-23.66389879415874
 20
-4.435126461790498
 30
0.0
  0
VERTEX
  5
7F
  8
DEFAULT
 10
-23.75310288568339
 20
-5.86740928345081
 30
0.0
  0
VERTEX
  5
80
  8
DEFAULT
 10
-23.80662534059818
 20
-7.322057190741313
 30
0.0
  0
VERTEX
  5
81
  8
DEFAULT
 10
-23.82446615890311
 20
-8.799070183662009
 30
0.0
 42
0.2100944183607415
  0
VERTEX
  5
82
  8
DEFAULT
 10
-16.03350963958114
 20
-26.52221192496923
 30
0.0
 42
0.1877779625823793
  0
VERTEX
  5
83
  8
DEFAULT
 10
-14.47572614492486
 20
-27.12862936707333
 30
0.0
  0
VERTEX
  5
84
  8
DEFAULT
 10
14.93497614639665
 20
-27.12862936707333
 30
0.0
 42
0.1877779625823812
  0
VERTEX
  5
85
  8
DEFAULT
 10
16.49275964105294
 20
-26.52221192496923
 30
0.0
 42
0.2100944536011877
  0
VERTEX
  5
86
  8
DEFAULT
 10
24.28371616037472
 20
-8.799066936292414
 30
0.0
  0
VERTEX
  5
87
  8
DEFAULT
 10
24.2658753420698
 20
-7.322054143161063
 30
0.0
  0
VERTEX
  5
88
  8
DEFAULT
 10
24.21235288715501
 20
-5.867406429317384
 30
0.0
  0
VERTEX
  5
89
  8
DEFAULT
 10
24.12314879563037
 20
-4.435123794761378
 30
0.0
  0
VERTEX
  5
8A
  8
DEFAULT
 10
23.99826306749587
 20
-3.025206239493044
 30
0.0
  0
VERTEX
  5
8B
  8
DEFAULT
 10
23.8376957027515
 20
-1.637653763512383
 30
0.0
  0
VERTEX
  5
8C
  8
DEFAULT
 10
23.64144670139728
 20
-0.2724663668193945
 30
0.0
  0
VERTEX
  5
8D
  8
DEFAULT
 10
23.40951606343319
 20
1.070355950585922
 30
0.0
  0
VERTEX
  5
8E
  8
DEFAULT
 10
23.14190378885924
 20
2.390813188703565
 30
0.0
  0
VERTEX
  5
8F
  8
DEFAULT
 10
22.83860987767543
 20
3.688905347533536
 30
0.0
  0
VERTEX
  5
90
  8
DEFAULT
 10
22.49963432988175
 20
4.964632427075835
 30
0.0
  0
VERTEX
  5
91
  8
DEFAULT
 10
22.12497714547822
 20
6.217994427330461
 30
0.0
  0
VERTEX
  5
92
  8
DEFAULT
 10
21.71463832446483
 20
7.448991348297414
 30
0.0
  0
VERTEX
  5
93
  8
DEFAULT
 10
21.26861786684157
 20
8.657623189976697
 30
0.0
  0
VERTEX
  5
94
  8
DEFAULT
 10
20.78691577260845
 20
9.843889952368304
 30
0.0
  0
VERTEX
  5
95
  8
DEFAULT
 10
20.26953204176547
 20
11.00779163547224
 30
0.0
  0
VERTEX
  5
96
  8
DEFAULT
 10
19.71646667431263
 20
12.1493282392885
 30
0.0
  0
VERTEX
  5
97
  8
DEFAULT
 10
19.12771967024992
 20
13.26849976381709
 30
0.0
  0
VERTEX
  5
98
  8
DEFAULT
 10
18.50329102957736
 20
14.36530620905801
 30
0.0
  0
VERTEX
  5
99
  8
DEFAULT
 10
17.84318075229493
 20
15.43974757501126
 30
0.0
  0
VERTEX
  5
9A
  8
DEFAULT
 10
17.14738883840264
 20
16.49182386167683
 30
0.0
  0
VERTEX
  5
9B
  8
DEFAULT
 10
16.4159152879005
 20
17.52153506905474
 30
0.0
  0
VERTEX
  5
9C
  8
DEFAULT
 10
15.64876010078848
 20
18.52888119714496
 30
0.0
  0
VERTEX
  5
9D
  8
DEFAULT
 10
14.84592327706661
 20
19.51386224594752
 30
0.0
  0
VERTEX
  5
9E
  8
DEFAULT
 10
14.00740481673488
 20
20.4764782154624
 30
0.0
  0
VERTEX
  5
9F
  8
DEFAULT
 10
13.13320471979328
 20
21.41672910568962
 30
0.0
  0
VERTEX
  5
A0
  8
DEFAULT
 10
12.22332298624182
 20
22.33461491662915
 30
0.0
  0
VERTEX
  5
A1
  8
DEFAULT
 10
11.2777596160805
 20
23.23013564828102
 30
0.0
  0
VERTEX
  5
A2
  8
DEFAULT
 10
10.29651460930932
 20
24.10329130064521
 30
0.0
  0
VERTEX
  5
A3
  8
DEFAULT
 10
9.27958796592828
 20
24.95408187372174
 30
0.0
  0
VERTEX
  5
A4
  8
DEFAULT
 10
8.226979685937376
 20
25.78250736751059
 30
0.0
  0
VERTEX
  5
A5
  8
DEFAULT
 10
7.138689769336611
 20
26.58856778201176
 30
0.0
  0
VERTEX
  5
A6
  8
DEFAULT
 10
6.014718216125984
 20
27.37226311722527
 30
0.0
 42
0.3065037073603748
  0
SEQEND
  5
A7
  8
DEFAULT
  0
ENDSEC
  0
EOF
